# xmcd CD database file
#
# Track frame offsets:
#	150
#	17684
#	32077
#	45697
#	61328
#	77129
#	91128
#	104057
#	120793
#	137903
#	159683
#	174332
#	190312
#	203733
#	218096
#
# Disc length: 3096 seconds
#
# Revision: 0
# Processed by: cddbd v1.5.2PL0 Copyright (c) Steve Scherf et al.
# Submitted via: CDex 1.94
#
DISCID=c70c160f
DTITLE=Truck Stop - Weites Land CD3
DYEAR=2015
DGENRE=Country
TTITLE0=Traeume von den Cowboys
TTITLE1=Zwoelf Rosen
TTITLE2=Alter Freund
TTITLE3=Wir sind die Country Superstars
TTITLE4=Trucker lieben die Freiheit
TTITLE5=Schottischer Whisky
TTITLE6=Kanten, Falten, Ecken
TTITLE7=In der Hitze der Nacht
TTITLE8=Heimat ist ueberall
TTITLE9=Fluss im Abendwind
TTITLE10=Soehnchen mein Soehnchen
TTITLE11=Truck Stop and Linda Feller - Hey, kleiner Cowboy
TTITLE12=Zur rechten Zeit
TTITLE13=Wir sind noch lange keine Opas
TTITLE14=Big White Diesel
EXTD=YEAR: 2015
EXTT0=
EXTT1=
EXTT2=
EXTT3=
EXTT4=
EXTT5=
EXTT6=
EXTT7=
EXTT8=
EXTT9=
EXTT10=
EXTT11=
EXTT12=
EXTT13=
EXTT14=
PLAYORDER=
